<svg width="106" height="134" viewBox="0 0 106 134" fill="none" xmlns="http://www.w3.org/2000/svg">
<path d="M12.575 63.6147C12.4393 63.1643 12.3121 62.7177 12.1935 62.2751L12.1747 62.2863C11.5192 59.6747 11.0838 57.1995 10.8142 54.9C9.61934 44.7096 16.2946 36.2619 24.8324 30.8682L24.0256 35.0311C28.1327 33.9811 33.0805 34.041 38.6889 35.4053C59.3177 40.4235 81.0719 61.1894 87.2783 81.7873C89.1228 87.9086 89.3865 93.3262 88.3047 97.7861L92.6746 96.1447L90.9221 98.7071C88.451 102.32 85.305 105.396 81.6652 107.766C76.8207 111.112 69.7703 112.09 61.1644 109.997C40.5357 104.978 18.7814 84.2125 12.575 63.6147Z" fill="url(#paint0_linear_770_375)"/>
<path d="M19.0884 56.811C12.882 36.2132 24.5736 23.5834 45.2024 28.6016C65.8311 33.6198 87.5854 54.3858 93.7918 74.9836C99.9982 95.5814 88.3066 108.211 67.6779 103.193C47.0491 98.1748 25.2949 77.4089 19.0884 56.811Z" fill="url(#paint1_linear_770_375)"/>
<path d="M25.9388 56.7434C20.6417 39.1635 30.6219 28.3947 48.2125 32.6739C65.8032 36.953 84.3651 54.6651 89.6621 72.2449C94.9592 89.8247 84.9791 100.594 67.3884 96.3144C49.7977 92.0352 31.2359 74.3232 25.9388 56.7434Z" stroke="white"/>
<path d="M63.2724 51.6841L73.8609 54.2599C74.2529 54.3552 74.6688 54.551 75.0674 54.8279C75.466 55.1048 75.8333 55.4532 76.1328 55.8383C76.4322 56.2234 76.6533 56.6319 76.7742 57.023C76.895 57.4141 76.9113 57.7743 76.8215 58.0677L68.088 86.502C67.9964 86.7992 67.7988 87.017 67.5155 87.1331C67.2322 87.2492 66.8734 87.2594 66.4757 87.1626C66.078 87.0659 65.6558 86.8657 65.2522 86.5825C64.8486 86.2994 64.4782 85.9434 64.1787 85.551L55.6203 74.355C55.32 73.9665 55.0994 73.555 54.981 73.1618C54.8625 72.7686 54.8503 72.4077 54.9455 72.1155L61.66 52.3119C61.7573 52.0234 61.9574 51.8135 62.2404 51.7033C62.5234 51.5931 62.8792 51.5865 63.2724 51.6841ZM52.2164 52.09L49.2931 61.7319C49.2008 62.0289 49.0027 62.2464 48.7191 62.3623C48.4354 62.4781 48.0763 62.4882 47.6784 62.3914C47.2806 62.2946 46.8581 62.0944 46.4543 61.8113C46.0504 61.5282 45.6795 61.1723 45.3795 60.7799L35.6614 48.0667C35.365 47.6791 35.148 47.2695 35.0321 46.8786C34.9163 46.4878 34.9056 46.1294 35.0012 45.8391C35.0968 45.5488 35.2953 45.3368 35.5769 45.2242C35.8585 45.1115 36.2134 45.1023 36.6062 45.1972L49.2489 48.2727C49.6419 48.3679 50.0591 48.5641 50.4588 48.8417C50.8586 49.1193 51.2269 49.4687 51.5271 49.8549C51.8274 50.2411 52.049 50.6507 52.1699 51.0429C52.2909 51.435 52.3069 51.7961 52.2164 52.09Z" fill="white"/>
<defs>
<linearGradient id="paint0_linear_770_375" x1="14.3643" y1="34.0254" x2="92.4529" y2="104.777" gradientUnits="userSpaceOnUse">
<stop stop-color="#D73D3E"/>
<stop offset="0.579007" stop-color="#FF7F80"/>
<stop offset="1" stop-color="#E94344"/>
</linearGradient>
<linearGradient id="paint1_linear_770_375" x1="93.883" y1="98.8244" x2="66.8197" y2="16.456" gradientUnits="userSpaceOnUse">
<stop offset="0.0225697" stop-color="#FF6F6F"/>
<stop offset="1" stop-color="#E84142"/>
</linearGradient>
</defs>
</svg>
