<svg width="84" height="85" viewBox="0 0 84 85" fill="none" xmlns="http://www.w3.org/2000/svg">
<ellipse cx="41.3408" cy="41.6043" rx="30" ry="30.72" transform="rotate(-30 41.3408 41.6043)" fill="url(#paint0_linear_770_370)"/>
<circle cx="42.1695" cy="43.0394" r="30" transform="rotate(-30 42.1695 43.0394)" fill="url(#paint1_linear_770_370)"/>
<circle cx="42.0818" cy="43.3683" r="24.94" transform="rotate(-30 42.0818 43.3683)" stroke="white"/>
<path d="M54.907 39.9871C53.9238 38.7229 52.6462 38.0465 51.0546 38.0334C50.3272 38.0356 49.608 38.1616 48.8371 38.2531C48.8806 38.1637 48.9003 38.0881 48.9339 38.0366C51.0132 34.7792 48.0661 30.2782 44.9855 29.9357C43.7306 29.7925 42.5199 29.9452 41.359 30.294C40.5251 30.5505 39.7189 30.8553 38.889 31.1737C38.1097 29.8239 37.0619 27.9543 36.1992 26.4599L33.4192 28.0649C34.2443 29.5489 35.288 31.3566 36.0297 32.696L33.7962 33.9855C33.0308 32.6598 32.0109 30.8384 31.162 29.3681L28.4058 30.9593C29.2449 32.4675 30.3164 34.3234 31.058 35.6628C29.1433 36.7361 27.3138 37.7924 25.3991 38.8657C25.9975 39.9022 26.5303 40.88 27.1148 41.8924C27.5187 41.6592 27.8751 41.4534 28.2217 41.2854C28.5781 41.0797 28.9345 40.8739 29.281 40.706C30.297 40.2158 31.116 40.4821 31.6726 41.4463C33.9491 45.4989 36.2395 49.5757 38.5397 53.6147C39.0546 54.5065 38.8692 55.0634 38.0139 55.5573L36.1606 56.6273C36.6245 57.8699 37.0607 59.0643 37.5247 60.3069C39.4156 59.2472 41.2828 58.2014 43.1975 57.128C44.0325 58.5742 45.0664 60.4198 45.9431 61.9383L48.723 60.3333C47.8701 58.8011 46.8403 57.0174 46.043 55.5816C46.841 55.153 47.5677 54.7656 48.3182 54.3644C49.1531 55.8106 50.1452 57.5839 50.9941 59.0542L53.7741 57.4492C52.9211 55.917 51.8913 54.1333 51.1079 52.7216C51.1891 52.6427 51.2604 52.6015 51.3177 52.5363C52.523 51.5511 53.8078 50.6487 54.9099 49.5946C56.3464 48.1867 57.1064 46.4303 56.8451 44.3315C56.5926 42.7419 55.9182 41.2994 54.907 39.9871ZM35.7641 37.2843C37.4986 36.2829 39.1021 35.1643 41.0877 34.982C42.3976 34.8364 43.4213 35.4023 43.9484 36.4799C44.5173 37.6298 44.3587 38.7819 43.4507 39.7882C42.2223 41.1723 40.6165 42.0673 38.9353 42.9415C37.9014 41.096 36.8676 39.2504 35.7641 37.2843ZM49.9499 47.8625C48.8091 49.4532 47.1934 50.386 45.5679 51.3567C45.1164 51.6173 44.6511 51.8538 44.1521 52.1419L40.6191 45.858C42.7338 44.6371 44.7273 43.2612 47.2142 43.0145C48.5003 42.8826 49.5536 43.335 50.2354 44.5161C50.8936 45.7109 50.7072 46.8147 49.9499 47.8625Z" fill="white"/>
<defs>
<linearGradient id="paint0_linear_770_370" x1="9.90076" y1="46.2944" x2="75.1815" y2="45.4077" gradientUnits="userSpaceOnUse">
<stop stop-color="#D88018"/>
<stop offset="0.498649" stop-color="#FECF98"/>
<stop offset="0.9999" stop-color="#D88018"/>
</linearGradient>
<linearGradient id="paint1_linear_770_370" x1="42.1695" y1="13.0394" x2="39.4909" y2="73.0394" gradientUnits="userSpaceOnUse">
<stop offset="0.0538197" stop-color="#FEAE4F"/>
<stop offset="1" stop-color="#F89F36"/>
</linearGradient>
</defs>
</svg>
