<svg width="59" height="59" viewBox="0 0 59 59" fill="none" xmlns="http://www.w3.org/2000/svg">
<path d="M35.75 22.75V14.625C35.75 12.0391 34.7228 9.55919 32.8943 7.73071C31.0658 5.90223 28.5859 4.875 26 4.875C23.4141 4.875 20.9342 5.90223 19.1057 7.73071C17.2772 9.55919 16.25 12.0391 16.25 14.625V22.75M14.625 47.125H37.375C38.6679 47.125 39.9079 46.6114 40.8221 45.6971C41.7364 44.7829 42.25 43.5429 42.25 42.25V27.625C42.25 26.3321 41.7364 25.0921 40.8221 24.1779C39.9079 23.2636 38.6679 22.75 37.375 22.75H14.625C13.3321 22.75 12.0921 23.2636 11.1779 24.1779C10.2636 25.0921 9.75 26.3321 9.75 27.625V42.25C9.75 43.5429 10.2636 44.7829 11.1779 45.6971C12.0921 46.6114 13.3321 47.125 14.625 47.125Z" stroke="#2DD4BF" stroke-width="2" stroke-linecap="round" stroke-linejoin="round"/>
<path d="M42.75 29.75V21.625C42.75 19.0391 41.7228 16.5592 39.8943 14.7307C38.0658 12.9022 35.5859 11.875 33 11.875C30.4141 11.875 27.9342 12.9022 26.1057 14.7307C24.2772 16.5592 23.25 19.0391 23.25 21.625V29.75M21.625 54.125H44.375C45.6679 54.125 46.9079 53.6114 47.8221 52.6971C48.7364 51.7829 49.25 50.5429 49.25 49.25V34.625C49.25 33.3321 48.7364 32.0921 47.8221 31.1779C46.9079 30.2636 45.6679 29.75 44.375 29.75H21.625C20.3321 29.75 19.0921 30.2636 18.1779 31.1779C17.2636 32.0921 16.75 33.3321 16.75 34.625V49.25C16.75 50.5429 17.2636 51.7829 18.1779 52.6971C19.0921 53.6114 20.3321 54.125 21.625 54.125Z" stroke="#2DD4BF" stroke-opacity="0.2" stroke-width="2" stroke-linecap="round" stroke-linejoin="round"/>
</svg>
