<svg width="43" height="18" viewBox="0 0 43 18" fill="none" xmlns="http://www.w3.org/2000/svg">
<path d="M8.62534 0.736328C5.64236 0.736328 3.46121 1.35379 2.08665 2.58049C0.715759 3.81024 0.03479 6.81203 0.03479 9.34251C0.03479 11.873 0.715759 14.8877 2.08665 16.1046C3.46114 17.3248 5.64236 17.926 8.62534 17.926H16.2239L17.1484 13.5318H7.79112C5.95969 13.5318 4.45409 12.1847 4.45409 10.5492V8.13585C4.45409 6.49707 5.95969 5.15322 7.79112 5.15322H17.7345L20.6658 0.736328H8.62534ZM26.5506 0.736328L25.6262 5.13049H34.9834C36.8149 5.13049 38.3204 6.47448 38.3204 8.11311V10.5492C38.3204 12.188 36.8149 13.5091 34.9834 13.5091H25.0399L22.1088 17.926H34.1491C37.132 17.926 39.3133 17.3086 40.6879 16.0818C42.0589 14.8521 42.7397 11.8535 42.7397 9.31977C42.7397 6.78602 42.0589 3.80063 40.6879 2.58049C39.3133 1.36356 37.132 0.736328 34.1491 0.736328H26.5506ZM23.7547 0.75906L17.8022 10.3216L20.6206 10.3671L19.0198 17.8805L25.7164 7.29347L22.5372 7.22513L23.7547 0.75906Z" fill="url(#paint0_linear_342_372)"/>
<defs>
<linearGradient id="paint0_linear_342_372" x1="0.03479" y1="9.33114" x2="56.1517" y2="-0.498174" gradientUnits="userSpaceOnUse">
<stop stop-color="#46E8FF"/>
<stop offset="1" stop-color="#00FF73"/>
</linearGradient>
</defs>
</svg>
